<svg id="Livello_1" data-name="Livello 1" xmlns="http://www.w3.org/2000/svg" viewBox="0 0 2000 2000"><defs><style>.cls-1{fill:#bf292e;}.cls-2{fill:#010101;}</style></defs><path class="cls-1" d="M923.74,699.79c36,61.66,109.65,100.05,180.25,89.28,158.58-25.79,176-211.8,80.71-316.34C1071.58,338,835.76,377.8,794.16,554.44c-16.17,73.44,3.61,152.61,51.27,210,24.09,25.94,167.81,168.07,195.37,196.13L962,1039.41C931.43,1006.23,787.46,870.91,764,837c-55.25-89.13-69.78-206.08-32.53-304C804,330,1077.17,281,1218.94,444.05c101.75,117,106.91,303.93-47,374.35C1075.18,864.77,937.42,811.47,923.74,699.79Z"/><path class="cls-1" d="M1079,1300.21c-36-61.66-109.64-100-180.24-89.28-158.59,25.79-176,211.8-80.71,316.34C931.2,1662,1167,1622.2,1208.62,1445.56c16.17-73.44-3.62-152.61-51.27-210-24.09-25.94-167.81-168.07-195.37-196.13l78.82-78.82c30.55,33.18,174.51,168.5,198,202.43,55.26,89.13,69.78,206.08,32.54,304C1198.79,1670,925.61,1719,783.84,1556c-101.76-117-106.92-303.93,47-374.35C927.6,1135.23,1065.35,1188.53,1079,1300.21Z"/><path class="cls-2" d="M633.45,1327.41v-617l50.95,51c-18-54.9-23-114.38-13.18-170.86l-37.77-37.77H475.78V575A113.11,113.11,0,0,1,588.86,688.08v639.35c0,58.45-47.43,105.72-105.89,105.87v11.15H677.62a276,276,0,0,1-8.5-37.94A105.38,105.38,0,0,1,633.45,1327.41Z"/><path class="cls-1" d="M1079,1300.21c-36-61.66-109.64-100-180.24-89.28-158.59,25.79-176,211.8-80.71,316.34C931.2,1662,1167,1622.2,1208.62,1445.56c16.17-73.44-3.62-152.61-51.27-210-24.09-25.94-167.81-168.07-195.37-196.13l78.82-78.82c30.55,33.18,174.51,168.5,198,202.43,55.26,89.13,69.78,206.08,32.54,304C1198.79,1670,925.61,1719,783.84,1556c-101.76-117-106.92-303.93,47-374.35C927.6,1135.23,1065.35,1188.53,1079,1300.21Z"/><path class="cls-2" d="M1412.1,552.72h-87.82a276,276,0,0,1,9.16,39.4,105.31,105.31,0,0,1,34.07,77.64v617l-49.62-49.62c18.3,55,23.51,114.75,13.81,171.48l35.81,35.81h44.59V669.76c0-58.46,47.42-105.74,105.89-105.9V552.72Z"/><path class="cls-1" d="M1079,1300.21c-36-61.66-109.64-100-180.24-89.28-158.59,25.79-176,211.8-80.71,316.34C931.2,1662,1167,1622.2,1208.62,1445.56c16.17-73.44-3.62-152.61-51.27-210-24.09-25.94-167.81-168.07-195.37-196.13l78.82-78.82c30.55,33.18,174.51,168.5,198,202.43,55.26,89.13,69.78,206.08,32.54,304C1198.79,1670,925.61,1719,783.84,1556c-101.76-117-106.92-303.93,47-374.35C927.6,1135.23,1065.35,1188.53,1079,1300.21Z"/><path class="cls-1" d="M923.74,699.79c36,61.66,109.65,100.05,180.25,89.28,158.58-25.79,176-211.8,80.71-316.34C1071.58,338,835.76,377.8,794.16,554.44c-16.17,73.44,3.61,152.61,51.27,210,24.09,25.94,167.81,168.07,195.37,196.13L962,1039.41C931.43,1006.23,787.46,870.91,764,837c-55.25-89.13-69.78-206.08-32.53-304C804,330,1077.17,281,1218.94,444.05c101.75,117,106.91,303.93-47,374.35C1075.18,864.77,937.42,811.47,923.74,699.79Z"/><path class="cls-2" d="M1606.42,824H1456.73v258.68c19.71,0,47.48-2.46,67.07-22-.34,41.25-31.65,72.18-67.07,72.18v43.06C1634.07,1137.38,1613.84,866.14,1606.42,824ZM1490.75,965.65c-.08-.36-.15-.73-.22-1.11-4.06-21.79,40.12-42.22,66.13-14.35C1536,978.12,1497.69,997.85,1490.75,965.65Z"/><path class="cls-2" d="M544.22,1047.46V824H394.53c-7.42,42.13-27.65,313.37,149.69,351.87v-78.29c-19.7,0-47.48,2.47-67.07,22.06C477.49,1078.4,508.81,1047.46,544.22,1047.46ZM446.37,972c3.45-38,50.88-48.92,61-29.21.18.34.35.67.51,1C522.18,973.53,479.8,981.45,446.37,972Z"/></svg>